# xmcd
#
# Track frame offsets:
#	150
#	16935
#	33786
#	54558
#	78383
#	99463
#	122337
#	140252
#	166298
#	180891
#	204291
#	229631
#	250139
#
# Disc length: 3777 seconds
#
# Revision: 1
# Processed by: cddbd v1.5.2PL0 Copyright (c) Steve Scherf et al.
# Submitted via: audiograbber 1.83.01
#
DISCID=8f0ebf0d
DTITLE=Bluesit - nightworker
DYEAR=2003
DGENRE=Bluesrock
TTITLE0=Too Tiny Hat
TTITLE1=Going To Mexico
TTITLE2=Mustang Sally
TTITLE3=Night Worker
TTITLE4=Sensitive Kind
TTITLE5=Rock´n Roll Will Never Die
TTITLE6=I Ain´t Got You
TTITLE7=Blues It
TTITLE8=The Thrill Is Gone
TTITLE9=Statesboro Blues
TTITLE10=Put It Right Back
TTITLE11=Boogie All Night Long
TTITLE12=Tuesday`s Gone
EXTD=
EXTT0=
EXTT1=
EXTT2=
EXTT3=
EXTT4=
EXTT5=
EXTT6=
EXTT7=
EXTT8=
EXTT9=
EXTT10=
EXTT11=
EXTT12=
PLAYORDER=
